<?xml version="1.0" encoding="UTF-8" ?>
<!DOCTYPE svg PUBLIC "-//W3C//DTD SVG 1.1//EN" "http://www.w3.org/Graphics/SVG/1.1/DTD/svg11.dtd">
<svg width="113pt" height="11pt" viewBox="0 0 113 11" version="1.1" xmlns="http://www.w3.org/2000/svg">
<path fill="#fefefe" opacity="1.00" d=" M 25.49 0.00 L 25.54 0.00 C 29.74 2.26 33.79 4.80 37.92 7.19 C 42.04 4.82 46.08 2.33 50.22 0.00 L 50.25 0.00 C 54.58 2.07 58.37 5.18 62.83 6.96 C 67.05 4.91 70.88 2.17 75.04 0.01 C 79.20 2.15 83.04 4.87 87.24 6.93 C 91.76 5.29 95.44 1.91 99.90 0.08 C 104.38 2.41 108.65 5.14 112.99 7.72 C 112.60 8.46 111.83 9.95 111.44 10.69 C 107.64 8.50 104.01 5.96 100.03 4.07 C 95.87 5.51 92.39 8.50 88.39 10.37 C 88.28 10.53 88.07 10.84 87.96 11.00 L 87.27 11.00 C 86.99 10.82 86.43 10.46 86.15 10.28 C 82.45 8.12 78.74 5.96 75.06 3.76 C 70.96 6.18 66.87 8.59 62.76 10.99 C 58.55 8.70 54.45 6.20 50.32 3.76 C 46.20 6.18 42.10 8.62 37.96 10.99 C 33.80 8.82 29.96 6.07 25.74 4.03 C 21.26 5.77 17.45 8.88 13.15 10.99 C 8.74 8.46 4.34 5.92 0.01 3.26 C 0.40 2.51 1.18 1.02 1.56 0.28 C 5.40 2.65 9.30 4.90 13.19 7.17 C 17.30 4.80 21.35 2.32 25.49 0.00 Z" />
</svg>
